<svg width="14" height="18" viewBox="0 0 14 18" fill="none" xmlns="http://www.w3.org/2000/svg">
<path d="M11.3083 2.85844L12.6283 1.53844C12.9217 1.24511 12.7108 0.759277 12.3075 0.759277H6.54168C6.28501 0.759277 6.08334 0.960944 6.08334 1.21761V6.98344C6.08334 7.39594 6.57834 7.59761 6.86251 7.30428L8.19168 5.97511C9.99751 7.31344 11.1708 9.44011 11.1708 11.8601C11.1708 12.4651 11.0975 13.0609 10.9508 13.6201C10.8408 14.0784 11.3908 14.4084 11.7208 14.0693C13.0775 12.6668 13.9208 10.7601 13.9208 8.65178C13.9208 6.35094 12.9033 4.28844 11.3083 2.85844Z" fill="#656ED4"/>
<path d="M7.1375 10.7051L5.80833 12.0251C4.0025 10.6868 2.82916 8.56012 2.82916 6.14012C2.82916 5.53512 2.9025 4.93929 3.04916 4.38012C3.15916 3.92179 2.60916 3.59179 2.27916 3.93096C0.922496 5.33346 0.0791626 7.24012 0.0791626 9.34846C0.0791626 11.6585 1.0875 13.721 2.6825 15.151L1.3625 16.471C1.06916 16.7643 1.28 17.2501 1.68333 17.2501H7.44916C7.70583 17.2501 7.9075 17.0485 7.9075 16.7918V11.026C7.91666 10.6226 7.42166 10.4118 7.1375 10.7051Z" fill="#656ED4"/>
</svg>
