<svg width="22" height="22" viewBox="0 0 22 22" fill="none" xmlns="http://www.w3.org/2000/svg">
<g clip-path="url(#clip0_212_1784)">
<path d="M16.5 11.0002C16.5 11.5043 16.9125 11.9168 17.4167 11.9168H19.25C19.7542 11.9168 20.1667 11.5043 20.1667 11.0002C20.1667 10.496 19.7542 10.0835 19.25 10.0835H17.4167C16.9125 10.0835 16.5 10.496 16.5 11.0002Z" fill="#943AFE"/>
<path d="M15.2075 15.4182C14.905 15.8216 14.9875 16.3807 15.3908 16.6741C15.8767 17.0316 16.39 17.4166 16.8758 17.7832C17.2792 18.0857 17.8475 18.0032 18.1408 17.5999C18.1408 17.5907 18.15 17.5907 18.15 17.5816C18.4525 17.1782 18.37 16.6099 17.9667 16.3166C17.4808 15.9499 16.9675 15.5649 16.4908 15.2074C16.0875 14.9049 15.5192 14.9966 15.2167 15.3999C15.2167 15.4091 15.2075 15.4182 15.2075 15.4182Z" fill="#943AFE"/>
<path d="M18.1591 4.40892C18.1591 4.39976 18.15 4.39976 18.15 4.39059C17.8475 3.98726 17.2791 3.90476 16.885 4.20726C16.3991 4.57392 15.8766 4.95892 15.4 5.32559C14.9966 5.62809 14.9233 6.19642 15.2258 6.59059C15.2258 6.59976 15.235 6.59976 15.235 6.60892C15.5375 7.01226 16.0966 7.09476 16.5 6.79226C16.9858 6.43476 17.4991 6.04059 17.985 5.67392C18.3791 5.38059 18.4525 4.81226 18.1591 4.40892Z" fill="#943AFE"/>
<path d="M7.33331 8.25H3.66665C2.65831 8.25 1.83331 9.075 1.83331 10.0833V11.9167C1.83331 12.925 2.65831 13.75 3.66665 13.75H4.58331V16.5C4.58331 17.0042 4.99581 17.4167 5.49998 17.4167C6.00415 17.4167 6.41665 17.0042 6.41665 16.5V13.75H7.33331L11.9166 16.5V5.5L7.33331 8.25Z" fill="#943AFE"/>
<path d="M14.2083 11C14.2083 9.78087 13.6766 8.68087 12.8333 7.9292V14.0617C13.6766 13.3192 14.2083 12.2192 14.2083 11Z" fill="#943AFE"/>
</g>
<defs>
<clipPath id="clip0_212_1784">
<rect width="22" height="22" fill="white"/>
</clipPath>
</defs>
</svg>
