<svg width="12" height="15" viewBox="0 0 12 15" fill="none" xmlns="http://www.w3.org/2000/svg">
<path d="M5.08333 1.50016V5.70766H2.98416C2.57166 5.70766 2.37 6.20266 2.66333 6.48683L5.67916 9.50266C5.8625 9.686 6.14666 9.686 6.33 9.50266L9.34583 6.48683C9.63 6.20266 9.42833 5.70766 9.025 5.70766H6.91666V1.50016C6.91666 0.995996 6.50416 0.583496 6 0.583496C5.49583 0.583496 5.08333 0.995996 5.08333 1.50016ZM1.50833 8.8335C0.949164 8.8335 0.490831 9.33766 0.600831 9.88766C1.09583 12.4177 3.32333 14.3335 6 14.3335C8.67666 14.3335 10.9042 12.4177 11.3992 9.88766C11.5092 9.33766 11.0508 8.8335 10.4917 8.8335C10.0425 8.8335 9.685 9.15433 9.59333 9.59433C9.23583 11.2535 7.76916 12.5002 6 12.5002C4.23083 12.5002 2.76416 11.2535 2.41583 9.59433C2.32416 9.15433 1.9575 8.8335 1.50833 8.8335Z" fill="#A31C3A"/>
</svg>
