<svg width="18" height="18" viewBox="0 0 18 18" fill="none" xmlns="http://www.w3.org/2000/svg">
<path d="M1.66663 2.58333L7.16663 2.58333M7.16663 2.58333C7.16663 3.59586 7.98744 4.41667 8.99996 4.41667C10.0125 4.41667 10.8333 3.59586 10.8333 2.58333M7.16663 2.58333C7.16663 1.57081 7.98744 0.75 8.99996 0.75C10.0125 0.75 10.8333 1.57081 10.8333 2.58333M10.8333 2.58333L16.3333 2.58333M1.66663 9L12.6666 9M12.6666 9C12.6666 10.0125 13.4874 10.8333 14.5 10.8333C15.5125 10.8333 16.3333 10.0125 16.3333 9C16.3333 7.98748 15.5125 7.16667 14.5 7.16667C13.4874 7.16667 12.6666 7.98748 12.6666 9ZM5.33329 15.4167L16.3333 15.4167M5.33329 15.4167C5.33329 14.4041 4.51248 13.5833 3.49996 13.5833C2.48744 13.5833 1.66663 14.4041 1.66663 15.4167C1.66663 16.4292 2.48744 17.25 3.49996 17.25C4.51248 17.25 5.33329 16.4292 5.33329 15.4167Z" stroke="#2C5CC5" stroke-width="1.5" stroke-linecap="round"/>
</svg>
