<svg width="18" height="18" viewBox="0 0 18 18" fill="none" xmlns="http://www.w3.org/2000/svg">
<path d="M1.66675 2.58333L7.16675 2.58333M7.16675 2.58333C7.16675 3.59586 7.98756 4.41667 9.00008 4.41667C10.0126 4.41667 10.8334 3.59586 10.8334 2.58333M7.16675 2.58333C7.16675 1.57081 7.98756 0.75 9.00008 0.75C10.0126 0.75 10.8334 1.57081 10.8334 2.58333M10.8334 2.58333L16.3334 2.58333M1.66675 9L12.6667 9M12.6667 9C12.6667 10.0125 13.4876 10.8333 14.5001 10.8333C15.5126 10.8333 16.3334 10.0125 16.3334 9C16.3334 7.98748 15.5126 7.16667 14.5001 7.16667C13.4876 7.16667 12.6667 7.98748 12.6667 9ZM5.33341 15.4167L16.3334 15.4167M5.33341 15.4167C5.33341 14.4041 4.5126 13.5833 3.50008 13.5833C2.48756 13.5833 1.66675 14.4041 1.66675 15.4167C1.66675 16.4292 2.48756 17.25 3.50008 17.25C4.5126 17.25 5.33341 16.4292 5.33341 15.4167Z" stroke="#2E3540" stroke-width="1.5" stroke-linecap="round"/>
</svg>
