<svg width="18" height="18" viewBox="0 0 18 18" fill="none" xmlns="http://www.w3.org/2000/svg">
<path d="M9.74783 16.8904C13.4466 15.0043 16.3333 11.8809 16.3333 8.08333C16.3333 4.03325 13.05 0.75 8.99996 0.75C4.94987 0.75 1.66663 4.03325 1.66663 8.08333C1.66663 11.8809 4.55329 15.0043 8.25209 16.8904C8.72201 17.13 9.2779 17.13 9.74783 16.8904Z" stroke="#2E3540" stroke-width="1.5" stroke-linecap="round" stroke-linejoin="round"/>
<path d="M11.75 8.08333C11.75 9.60212 10.5187 10.8333 8.99996 10.8333C7.48118 10.8333 6.24996 9.60212 6.24996 8.08333C6.24996 6.56455 7.48118 5.33333 8.99996 5.33333C10.5187 5.33333 11.75 6.56455 11.75 8.08333Z" stroke="#2E3540" stroke-width="1.5" stroke-linecap="round" stroke-linejoin="round"/>
</svg>
