<svg width="16" height="21" viewBox="0 0 16 21" fill="none" xmlns="http://www.w3.org/2000/svg">
<path d="M8.00003 20.0833C9.00836 20.0833 9.82419 19.2675 9.82419 18.2592H6.17586C6.17586 19.2675 6.99169 20.0833 8.00003 20.0833ZM15.5992 15.7658L14.4167 14.5833V9.08333C14.4167 6.0125 12.2534 3.44583 9.37503 2.8225V1.75C9.37503 0.989167 8.76086 0.375 8.00003 0.375C7.23919 0.375 6.62503 0.989167 6.62503 1.75V2.8225C3.74669 3.44583 1.58336 6.0125 1.58336 9.08333V14.5833L0.40086 15.7658C-0.17664 16.3433 0.226693 17.3333 1.04253 17.3333H14.9484C15.7734 17.3333 16.1767 16.3433 15.5992 15.7658ZM8.91669 13.6667H7.08336V11.8333H8.91669V13.6667ZM8.91669 9.08333C8.91669 9.5875 8.50419 10 8.00003 10C7.49586 10 7.08336 9.5875 7.08336 9.08333V7.25C7.08336 6.74583 7.49586 6.33333 8.00003 6.33333C8.50419 6.33333 8.91669 6.74583 8.91669 7.25V9.08333Z" fill="#08BA84"/>
</svg>
