<svg width="19" height="18" viewBox="0 0 19 18" fill="none" xmlns="http://www.w3.org/2000/svg">
<path d="M7.16667 12.6667V5.33333C7.16667 4.325 7.9825 3.5 9 3.5H17.25V2.58333C17.25 1.575 16.425 0.75 15.4167 0.75H2.58333C1.56583 0.75 0.75 1.575 0.75 2.58333V15.4167C0.75 16.425 1.56583 17.25 2.58333 17.25H15.4167C16.425 17.25 17.25 16.425 17.25 15.4167V14.5H9C7.9825 14.5 7.16667 13.675 7.16667 12.6667ZM9.91667 5.33333C9.4125 5.33333 9 5.74583 9 6.25V11.75C9 12.2542 9.4125 12.6667 9.91667 12.6667H18.1667V5.33333H9.91667ZM12.6667 10.375C11.9058 10.375 11.2917 9.76083 11.2917 9C11.2917 8.23917 11.9058 7.625 12.6667 7.625C13.4275 7.625 14.0417 8.23917 14.0417 9C14.0417 9.76083 13.4275 10.375 12.6667 10.375Z" fill="#612764"/>
</svg>
