<svg width="22" height="17" viewBox="0 0 22 17" fill="none" xmlns="http://www.w3.org/2000/svg">
<path d="M19.25 0.666504H2.75002C1.74169 0.666504 0.916687 1.4915 0.916687 2.49984V14.4165C0.916687 15.4248 1.74169 16.2498 2.75002 16.2498H19.25C20.2584 16.2498 21.0834 15.4248 21.0834 14.4165V2.49984C21.0834 1.4915 20.2584 0.666504 19.25 0.666504ZM19.25 13.4998C19.25 14.004 18.8375 14.4165 18.3334 14.4165H11V2.49984H18.3334C18.8375 2.49984 19.25 2.91234 19.25 3.4165V13.4998ZM17.6459 5.70817H12.6042C12.2284 5.70817 11.9167 6.01984 11.9167 6.39567C11.9167 6.7715 12.2284 7.08317 12.6042 7.08317H17.6459C18.0217 7.08317 18.3334 6.7715 18.3334 6.39567C18.3334 6.01984 18.0217 5.70817 17.6459 5.70817ZM17.6459 7.99984H12.6042C12.2284 7.99984 11.9167 8.3115 11.9167 8.68734C11.9167 9.06317 12.2284 9.37484 12.6042 9.37484H17.6459C18.0217 9.37484 18.3334 9.06317 18.3334 8.68734C18.3334 8.3115 18.0217 7.99984 17.6459 7.99984ZM17.6459 10.2915H12.6042C12.2284 10.2915 11.9167 10.6032 11.9167 10.979C11.9167 11.3548 12.2284 11.6665 12.6042 11.6665H17.6459C18.0217 11.6665 18.3334 11.3548 18.3334 10.979C18.3334 10.6032 18.0217 10.2915 17.6459 10.2915Z" fill="#24C695"/>
</svg>
