<svg width="18" height="20" viewBox="0 0 18 20" fill="none" xmlns="http://www.w3.org/2000/svg">
<path d="M15.8108 10.898C15.8475 10.6047 15.875 10.3113 15.875 9.99967C15.875 9.68801 15.8475 9.39468 15.8108 9.10134L17.745 7.58884C17.9191 7.45134 17.965 7.20384 17.855 7.00217L16.0216 3.83051C15.9116 3.62884 15.6641 3.55551 15.4625 3.62884L13.18 4.54551C12.7033 4.17884 12.19 3.87634 11.6308 3.64717L11.2825 1.21801C11.255 0.998008 11.0625 0.833008 10.8333 0.833008H7.16664C6.93747 0.833008 6.74498 0.998008 6.71747 1.21801L6.36914 3.64717C5.80998 3.87634 5.29664 4.18801 4.81997 4.54551L2.53747 3.62884C2.32664 3.54634 2.08831 3.62884 1.97831 3.83051L0.144975 7.00217C0.0258082 7.20384 0.0808083 7.45134 0.254975 7.58884L2.18914 9.10134C2.15248 9.39468 2.12497 9.69718 2.12497 9.99967C2.12497 10.3022 2.15248 10.6047 2.18914 10.898L0.254975 12.4105C0.0808083 12.548 0.0349748 12.7955 0.144975 12.9972L1.97831 16.1688C2.08831 16.3705 2.33581 16.4438 2.53747 16.3705L4.81997 15.4538C5.29664 15.8205 5.80998 16.123 6.36914 16.3522L6.71747 18.7813C6.74498 19.0013 6.93747 19.1663 7.16664 19.1663H10.8333C11.0625 19.1663 11.255 19.0013 11.2825 18.7813L11.6308 16.3522C12.19 16.123 12.7033 15.8113 13.18 15.4538L15.4625 16.3705C15.6733 16.453 15.9116 16.3705 16.0216 16.1688L17.855 12.9972C17.965 12.7955 17.9191 12.548 17.745 12.4105L15.8108 10.898ZM8.99998 13.208C7.23081 13.208 5.79164 11.7688 5.79164 9.99967C5.79164 8.23051 7.23081 6.79134 8.99998 6.79134C10.7691 6.79134 12.2083 8.23051 12.2083 9.99967C12.2083 11.7688 10.7691 13.208 8.99998 13.208Z" fill="#427DFF"/>
</svg>
