<svg width="22" height="17" viewBox="0 0 22 17" fill="none" xmlns="http://www.w3.org/2000/svg">
<path d="M19.25 5.3335C17.9209 5.3335 17.1784 6.6535 17.4809 7.63433L14.2267 10.8977C13.9517 10.8152 13.5484 10.8152 13.2734 10.8977L10.9359 8.56016C11.2475 7.57933 10.505 6.25016 9.16669 6.25016C7.83752 6.25016 7.08585 7.57016 7.39752 8.56016L3.21752 12.731C2.23669 12.4285 0.916687 13.171 0.916687 14.5002C0.916687 15.5085 1.74169 16.3335 2.75002 16.3335C4.07919 16.3335 4.82169 15.0135 4.51919 14.0327L8.69002 9.85266C8.96502 9.93516 9.36835 9.93516 9.64335 9.85266L11.9809 12.1902C11.6692 13.171 12.4117 14.5002 13.75 14.5002C15.0792 14.5002 15.8309 13.1802 15.5192 12.1902L18.7825 8.936C19.7634 9.2385 21.0834 8.496 21.0834 7.16683C21.0834 6.1585 20.2584 5.3335 19.25 5.3335Z" fill="#9361CC"/>
<path d="M13.75 6.25L14.6117 4.3525L16.5 3.5L14.6117 2.6475L13.75 0.75L12.9067 2.6475L11 3.5L12.9067 4.3525L13.75 6.25Z" fill="#9361CC"/>
<path d="M3.20835 8.08333L3.66669 6.25L5.50002 5.79167L3.66669 5.33333L3.20835 3.5L2.75002 5.33333L0.916687 5.79167L2.75002 6.25L3.20835 8.08333Z" fill="#9361CC"/>
</svg>
