<svg width="20" height="20" viewBox="0 0 20 20" fill="none" xmlns="http://www.w3.org/2000/svg">
<path d="M9.99998 0.833496C4.93998 0.833496 0.833313 4.94016 0.833313 10.0002C0.833313 15.0602 4.93998 19.1668 9.99998 19.1668C15.06 19.1668 19.1666 15.0602 19.1666 10.0002C19.1666 4.94016 15.06 0.833496 9.99998 0.833496ZM16.8383 7.36016L14.29 8.41433C13.8225 7.16766 12.8416 6.17766 11.5858 5.71933L12.64 3.171C14.565 3.90433 16.0958 5.43516 16.8383 7.36016ZM9.99998 12.7502C8.47831 12.7502 7.24998 11.5218 7.24998 10.0002C7.24998 8.4785 8.47831 7.25016 9.99998 7.25016C11.5216 7.25016 12.75 8.4785 12.75 10.0002C12.75 11.5218 11.5216 12.7502 9.99998 12.7502ZM7.36915 3.16183L8.44165 5.71016C7.17665 6.1685 6.17748 7.16766 5.70998 8.43266L3.16165 7.36933C3.90415 5.43516 5.43498 3.90433 7.36915 3.16183ZM3.16165 12.631L5.70998 11.5768C6.17748 12.8418 7.16748 13.8318 8.43248 14.2902L7.35998 16.8385C5.43498 16.096 3.90415 14.5652 3.16165 12.631ZM12.64 16.8385L11.5858 14.2902C12.8416 13.8227 13.8316 12.8327 14.29 11.5677L16.8383 12.6402C16.0958 14.5652 14.565 16.096 12.64 16.8385Z" fill="#DB3156"/>
</svg>
