<svg width="20" height="16" viewBox="0 0 20 16" fill="none" xmlns="http://www.w3.org/2000/svg">
<path d="M17.3333 2.49984H9.99998L8.70748 1.20734C8.35915 0.859004 7.89165 0.666504 7.40581 0.666504H2.66665C1.65831 0.666504 0.84248 1.4915 0.84248 2.49984L0.833313 13.4998C0.833313 14.5082 1.65831 15.3332 2.66665 15.3332H17.3333C18.3416 15.3332 19.1666 14.5082 19.1666 13.4998V4.33317C19.1666 3.32484 18.3416 2.49984 17.3333 2.49984ZM12.75 5.24984C13.7583 5.24984 14.5833 6.07484 14.5833 7.08317C14.5833 8.0915 13.7583 8.9165 12.75 8.9165C11.7416 8.9165 10.9166 8.0915 10.9166 7.08317C10.9166 6.07484 11.7416 5.24984 12.75 5.24984ZM16.4166 12.5832H9.08331V11.6665C9.08331 10.4473 11.5308 9.83317 12.75 9.83317C13.9691 9.83317 16.4166 10.4473 16.4166 11.6665V12.5832Z" fill="#C4A3FC"/>
</svg>
